<svg width="23" height="22" viewBox="0 0 23 22" fill="none" xmlns="http://www.w3.org/2000/svg">
<path d="M5.54861 5.00009V9.20009M17.5486 5.00009V9.20009M16.9486 13.4001H19.3486C20.3427 13.4001 21.1486 12.5942 21.1486 11.6001V3.20009C21.1486 2.20597 20.3427 1.40009 19.3486 1.40009H3.74861C2.7545 1.40009 1.94861 2.20597 1.94861 3.20009V11.6001C1.94861 12.5942 2.7545 13.4001 3.74861 13.4001H6.14861M8.15354 17.2058L11.5477 20.5999M11.5477 20.5999L14.7131 17.4344M11.5477 20.5999L11.5478 13.6575M13.9486 7.40009C13.9486 8.72557 12.8741 9.80009 11.5486 9.80009C10.2231 9.80009 9.14861 8.72557 9.14861 7.40009C9.14861 6.0746 10.2231 5.00009 11.5486 5.00009C12.8741 5.00009 13.9486 6.0746 13.9486 7.40009Z" stroke="black" stroke-width="2" stroke-linecap="round" stroke-linejoin="round"/>
</svg>
