<svg width="25" height="25" viewBox="0 0 25 25" fill="none" xmlns="http://www.w3.org/2000/svg">
<path fill-rule="evenodd" clip-rule="evenodd" d="M3.125 6.77083C3.125 4.03624 3.15428 3.125 6.77083 3.125C10.3874 3.125 10.4167 4.03624 10.4167 6.77083C10.4167 9.50543 10.4282 10.4167 6.77083 10.4167C3.11347 10.4167 3.125 9.50543 3.125 6.77083Z" stroke="#002055" stroke-width="1.5" stroke-linecap="round" stroke-linejoin="round"/>
<path fill-rule="evenodd" clip-rule="evenodd" d="M14.5833 6.77083C14.5833 4.03624 14.6125 3.125 18.2291 3.125C21.8456 3.125 21.8749 4.03624 21.8749 6.77083C21.8749 9.50543 21.8865 10.4167 18.2291 10.4167C14.5717 10.4167 14.5833 9.50543 14.5833 6.77083Z" stroke="#002055" stroke-width="1.5" stroke-linecap="round" stroke-linejoin="round"/>
<path fill-rule="evenodd" clip-rule="evenodd" d="M3.125 18.2292C3.125 15.4946 3.15428 14.5834 6.77083 14.5834C10.3874 14.5834 10.4167 15.4946 10.4167 18.2292C10.4167 20.9638 10.4282 21.875 6.77083 21.875C3.11347 21.875 3.125 20.9638 3.125 18.2292Z" stroke="#002055" stroke-width="1.5" stroke-linecap="round" stroke-linejoin="round"/>
<path fill-rule="evenodd" clip-rule="evenodd" d="M14.5833 18.2292C14.5833 15.4946 14.6125 14.5834 18.2291 14.5834C21.8456 14.5834 21.8749 15.4946 21.8749 18.2292C21.8749 20.9638 21.8865 21.875 18.2291 21.875C14.5717 21.875 14.5833 20.9638 14.5833 18.2292Z" stroke="#002055" stroke-width="1.5" stroke-linecap="round" stroke-linejoin="round"/>
</svg>
